<svg width="278" height="37" viewBox="0 0 278 37" fill="none" xmlns="http://www.w3.org/2000/svg">
<path d="M0 2.15571C0 0.963911 0.889045 0 1.98828 0H17.7695C22.3369 0 24.2286 0.588202 25.9414 2.45751C27.6541 4.38226 28.5829 7.69281 28.5829 11.8626C28.5829 16.5651 27.478 20.0389 25.4074 21.8558C23.7656 23.2971 22.3028 23.6728 17.8434 23.6728H9.10064V33.4875C9.10064 34.6793 8.21159 35.6432 7.11236 35.6432H1.99111C0.891879 35.6432 0.0028345 34.6793 0.0028345 33.4875V2.15571H0ZM14.807 15.0684C16.6618 15.0684 17.3406 14.9606 17.8036 14.5357C18.4455 13.9475 18.8375 12.8265 18.8375 11.3822C18.8375 8.76451 17.9087 7.96382 14.8411 7.96382H9.09495V15.0715H14.8042L14.807 15.0684Z" fill="white"/>
<path d="M32.9002 16.6727C31.4771 16.7589 30.4404 15.2407 30.9204 13.7841C31.5567 11.8655 32.5025 10.6521 34.0818 9.61737C35.9735 8.33626 38.7571 7.69263 42.5377 7.69263C48.3179 7.69263 52.1723 8.86903 53.885 11.2188C55.1689 12.9279 55.5609 14.905 55.5609 19.2873V29.7055C55.5921 31.4363 55.6177 32.4926 55.6915 33.2686C55.8108 34.5374 54.8906 35.6368 53.7146 35.6368H49.5818C48.5451 35.6368 47.6845 34.7745 47.5992 33.6536L47.568 33.2317C44.8554 35.4767 42.5377 36.3297 38.8963 36.3297C32.5082 36.3297 28.7617 32.9114 28.7617 27.0848C28.7617 24.0391 29.8666 21.8495 31.9373 20.6731C34.4709 19.2842 38.6463 18.3757 43.4977 18.2156C46.7443 18.1078 47.2811 17.8953 47.2811 16.9345C47.2811 15.5456 45.5314 14.5293 43.0716 14.5293C41.322 14.5293 40.2426 14.8742 39.5893 15.6472C39.2371 16.0629 38.7514 16.3186 38.2288 16.3493L32.8973 16.6665L32.9002 16.6727ZM47.355 23.5125C46.2841 23.7804 46.1421 23.7804 44.0715 23.8851C41.7168 23.9375 40.859 24.0452 40.183 24.153C39.1121 24.421 38.5071 25.2217 38.5071 26.3426C38.5071 27.8393 39.578 28.5876 41.7906 28.5876C46.037 28.5876 47.3578 27.519 47.3578 24.2054V23.5094L47.355 23.5125Z" fill="white"/>
<path d="M82.045 35.6401H78.0144C76.8556 35.6401 75.941 34.5684 76.0318 33.315L76.0773 32.7022C73.4016 35.4276 71.544 36.3361 68.4423 36.3361C61.5912 36.3361 57.3448 30.8852 57.3448 22.016C57.3448 13.1468 61.6992 8.17631 68.5502 8.17631C71.2259 8.17631 73.2965 8.92465 75.8643 10.7416V2.15571C75.8643 0.963911 76.7533 0 77.8525 0H82.0478C83.147 0 84.0361 0.963911 84.0361 2.15571V33.4844C84.0361 34.6762 83.147 35.6401 82.0478 35.6401H82.045ZM66.4427 22.3363C66.4427 25.8624 68.1554 27.8395 71.1889 27.8395C74.2225 27.8395 75.8983 25.8624 75.8983 22.444C75.8983 19.0257 74.1856 16.8885 71.1889 16.8885C68.1923 16.8885 66.4427 18.8656 66.4427 22.3393V22.3363Z" fill="white"/>
<path d="M110.764 35.6401H106.734C105.575 35.6401 104.66 34.5684 104.751 33.315L104.797 32.7022C102.121 35.4276 100.263 36.3361 97.1615 36.3361C90.3105 36.3361 86.0641 30.8852 86.0641 22.016C86.0641 13.1468 90.4184 8.17631 97.2695 8.17631C99.9451 8.17631 102.016 8.92465 104.583 10.7416V2.15571C104.583 0.963911 105.473 0 106.572 0H110.767C111.866 0 112.755 0.963911 112.755 2.15571V33.4844C112.755 34.6762 111.866 35.6401 110.767 35.6401H110.764ZM95.1619 22.3363C95.1619 25.8624 96.8747 27.8395 99.9082 27.8395C102.942 27.8395 104.618 25.8624 104.618 22.444C104.618 19.0257 102.905 16.8885 99.9082 16.8885C96.9116 16.8885 95.1619 18.8656 95.1619 22.3393V22.3363Z" fill="white"/>
<path d="M117.845 0H122.39C123.58 0 124.543 0.963911 124.543 2.15571V33.4844C124.543 34.6762 123.577 35.6401 122.39 35.6401H117.845C116.655 35.6401 115.692 34.6762 115.692 33.4844V2.15571C115.692 0.963911 116.658 0 117.845 0Z" fill="white"/>
<path d="M151.001 27.8395C152.427 27.8395 153.384 29.4194 152.831 30.8452C152.277 32.2711 151.515 33.2842 150.385 34.1989C148.138 35.9635 145.355 36.7642 141.25 36.7642C136.399 36.7642 132.828 35.6956 130.511 33.6107C128.156 31.4734 126.727 27.0388 126.727 22.016C126.727 17.5814 127.869 13.735 129.761 11.7025C132.152 9.18954 135.97 7.74829 140.287 7.74829C146.139 7.74829 150.527 10.3659 152.277 14.856C153.075 16.9224 153.45 19.1089 153.586 23.3156C153.626 24.5321 152.723 25.5422 151.598 25.5422H135.757C136.115 27.2513 136.47 27.9997 137.22 28.6402C138.112 29.3362 139.29 29.7088 140.858 29.7088C142.324 29.7088 143.119 29.4317 143.818 28.5694C144.196 28.1044 144.738 27.8364 145.309 27.8364H151.001V27.8395ZM144.818 18.7547C144.284 16.2418 142.818 15.013 140.358 15.013C137.899 15.013 136.433 16.1894 135.828 18.7547H144.821H144.818Z" fill="white"/>
<path d="M161.23 9.08479H154.154C153.055 9.08479 152.166 8.12088 152.166 6.92908V2.15571C152.166 0.963911 153.055 0 154.154 0H177.511C178.61 0 179.499 0.963911 179.499 2.15571V6.92908C179.499 8.12088 178.61 9.08479 177.511 9.08479H170.328V33.4844C170.328 34.6762 169.439 35.6401 168.339 35.6401H163.218C162.119 35.6401 161.23 34.6762 161.23 33.4844V9.08479Z" fill="white"/>
<path d="M182.07 8.86918H186.592C187.776 8.86918 188.736 9.83309 188.736 11.0249V11.4345C191.045 9.1371 193.159 8.17627 195.931 8.17627C199.74 8.17627 201.97 9.99323 202.816 13.7318C203.123 15.0561 203.259 16.485 203.322 19.115C203.35 20.3252 202.381 21.32 201.18 21.32H196.454C195.42 21.32 194.519 20.5809 194.346 19.5554C194.031 17.6984 193.269 16.9377 191.818 16.9377C189.665 16.9377 188.739 18.807 188.739 23.1369V33.4843C188.739 34.6761 187.779 35.64 186.595 35.64H182.073C180.888 35.64 179.928 34.6761 179.928 33.4843V11.0249C179.928 9.83309 180.888 8.86918 182.073 8.86918H182.07Z" fill="white"/>
<path d="M207.468 16.6727C206.045 16.7589 205.009 15.2407 205.489 13.7841C206.125 11.8655 207.071 10.6521 208.65 9.61737C210.542 8.33626 213.325 7.69263 217.106 7.69263C222.886 7.69263 226.741 8.86903 228.453 11.2188C229.737 12.9279 230.129 14.905 230.129 19.2873V29.7055C230.16 31.4363 230.186 32.4926 230.26 33.2686C230.379 34.5374 229.459 35.6368 228.283 35.6368H224.15C223.113 35.6368 222.253 34.7745 222.167 33.6536L222.136 33.2317C219.424 35.4767 217.106 36.3297 213.465 36.3297C207.076 36.3297 203.33 32.9114 203.33 27.0848C203.33 24.0391 204.435 21.8495 206.506 20.6731C209.039 19.2842 213.215 18.3757 218.066 18.2156C221.313 18.1078 221.849 17.8953 221.849 16.9345C221.849 15.5456 220.1 14.5293 217.64 14.5293C215.89 14.5293 214.811 14.8742 214.158 15.6472C213.805 16.0629 213.32 16.3186 212.797 16.3493L207.466 16.6665L207.468 16.6727ZM221.923 23.5125C220.852 23.7804 220.71 23.7804 218.64 23.8851C216.285 23.9375 215.427 24.0452 214.751 24.153C213.68 24.421 213.075 25.2217 213.075 26.3426C213.075 27.8393 214.146 28.5876 216.359 28.5876C220.605 28.5876 221.926 27.519 221.926 24.2054V23.5094L221.923 23.5125Z" fill="white"/>
<path d="M257.516 23.9899C258.746 23.9899 259.681 25.1909 259.476 26.509C259.067 29.1698 258.391 30.919 257.198 32.5388C255.165 35.3166 251.526 36.761 246.601 36.761C242.354 36.761 238.821 35.8525 236.432 34.1433C233.649 32.1662 232.007 27.784 232.007 22.3362C232.007 16.1924 233.828 11.7578 237.182 9.83304C239.503 8.49649 242.749 7.6958 245.996 7.6958C248.35 7.6958 250.921 8.17622 252.884 8.92456C255.951 10.1533 257.914 12.2905 259.022 15.712C259.141 16.0661 259.238 16.4018 259.326 16.756C259.658 18.1202 258.701 19.4537 257.4 19.4537H251.736C250.984 19.4537 250.293 18.9948 249.961 18.2619C249.151 16.4757 247.808 15.5549 245.999 15.5549C242.894 15.5549 241.11 18.0124 241.11 22.2869C241.11 26.5614 242.965 29.1267 246.036 29.1267C248.26 29.1267 249.597 28.0272 250.305 25.542C250.563 24.6305 251.33 23.9961 252.211 23.9961H257.522L257.516 23.9899Z" fill="white"/>
<path d="M262.803 29.3699H269.137V31.1405H266.886V36.6929H265.054V31.1405H262.803V29.3699Z" fill="white"/>
<path d="M269.657 29.3699H272.615L273.759 32.7144H274.047L275.219 29.3699H278V36.6929H276.186V31.6433H275.935L274.773 35.0097H272.782L271.619 31.6433H271.378V36.6929H269.657V29.3699Z" fill="white"/>
</svg>
