<svg width="78" height="77" viewBox="0 0 78 77" fill="none" xmlns="http://www.w3.org/2000/svg">
<path d="M76.3637 66.9752L75.8874 67.4498L68.3476 74.9628L68.3419 74.9686L67.88 75.4288C65.7971 77.5044 62.4202 77.5044 60.3373 75.4288C58.2544 73.3533 58.2544 69.9884 60.3373 67.9129L60.3689 67.8815C60.6099 67.6413 60.6099 67.2554 60.3689 67.0152L21.8609 28.6436C19.778 26.5681 19.778 23.2061 21.8609 21.1305C23.9438 19.055 27.3178 19.055 29.4007 21.1305L49.0793 40.7394C49.501 41.1597 50.224 40.9624 50.3675 40.3849C50.5482 39.6702 50.7204 38.9612 50.9384 38.2179C51.1077 37.6347 51.2884 37.0773 51.4606 36.5369C51.9598 34.9731 52.4303 33.4951 52.3471 32.4602C52.2094 30.7649 51.3458 29.3526 49.042 27.0569C45.3094 23.3376 42.5924 20.5874 40.1968 18.1602C38.3291 16.2676 36.7167 14.6352 34.9781 12.9027C34.6481 12.574 34.2952 12.2652 33.9222 11.9822C33.4403 11.6163 32.9238 11.2961 32.373 11.0416C31.7475 10.75 31.0848 10.5413 30.402 10.4384C29.6187 10.3212 28.8154 10.3441 28.0379 10.4927C27.0768 10.6757 26.1615 11.0473 25.3123 11.5219C24.179 12.1566 23.1749 12.9771 22.2511 13.8833C21.7892 14.3379 21.3387 14.801 20.8797 15.2584C20.3977 15.7387 19.9157 16.219 19.4337 16.6993C18.6849 17.4455 17.9361 18.1916 17.1872 18.9378C16.3007 19.8212 15.4142 20.7017 14.5277 21.5851C13.7186 22.3913 12.9956 23.2747 12.4017 24.2495C11.9541 24.9843 11.584 25.7733 11.343 26.5995C11.1451 27.2799 11.0389 27.9889 11.0475 28.6979C11.0533 29.3154 11.1451 29.933 11.3172 30.5276C11.4721 31.0622 11.6931 31.5797 11.9627 32.0685C12.2009 32.5031 12.482 32.9148 12.789 33.3007C13.0415 33.618 13.3112 33.9182 13.5981 34.2041C15.3338 35.9337 16.9749 37.5432 18.8742 39.4044C21.31 41.7915 24.07 44.496 27.8026 48.2182C30.1064 50.5139 31.5237 51.3744 33.2251 51.5116C33.2796 51.5173 33.3398 51.5173 33.3972 51.5173C33.4144 51.5173 33.4345 51.5173 33.4517 51.5173C36.338 51.5173 38.6791 53.8502 38.6791 56.7262C38.6791 59.6022 36.3494 61.9236 33.4689 61.935C33.1132 61.935 32.7517 61.9236 32.3845 61.8921C26.9792 61.4576 23.3011 58.4587 20.4149 55.5826C16.711 51.8919 13.9682 49.2017 11.5467 46.8288C9.6331 44.9505 7.97767 43.3296 6.21035 41.5685C4.30819 39.6702 1.05759 35.6021 0.687485 29.6557C0.446487 25.7705 1.43917 19.8583 7.55019 13.769L8.86994 12.4539L13.1476 8.19134L14.4674 6.87627C20.5842 0.784037 26.5144 -0.207987 30.4163 0.0321576C36.3839 0.40095 40.4665 3.63718 42.3715 5.53546C44.1388 7.29652 45.7656 8.94322 47.6505 10.8529C50.0318 13.2658 52.7316 15.9989 56.4355 19.6897C59.3217 22.5657 62.3313 26.2307 62.7674 31.6168C63.017 34.693 62.1706 37.346 61.4247 39.6874C61.264 40.1905 61.112 40.6651 60.9771 41.1283C60.3918 43.1323 59.8267 45.1535 59.2988 47.1376C58.8454 48.8386 58.8541 50.148 60.2656 51.8804L67.9144 59.5021C68.1554 59.7423 68.5427 59.7423 68.7837 59.5021L68.8239 59.4621C70.9068 57.3866 74.2837 57.3866 76.3666 59.4621C78.4495 61.5376 78.4495 64.9025 76.3666 66.9781L76.3637 66.9752Z" fill="white"/>
</svg>
