<svg width="228" height="48" viewBox="0 0 228 48" fill="none" xmlns="http://www.w3.org/2000/svg">
<path d="M46.402 41.7586L46.1101 42.0545L41.4889 46.7389L41.4854 46.7425L41.2023 47.0294C39.9257 48.3235 37.856 48.3235 36.5794 47.0294C35.3027 45.7354 35.3027 43.6374 36.5794 42.3433L36.5987 42.3237C36.7464 42.174 36.7464 41.9333 36.5987 41.7836L12.997 17.8591C11.7204 16.565 11.7204 14.4688 12.997 13.1748C14.2737 11.8807 16.3416 11.8807 17.6182 13.1748L29.6793 25.4008C29.9378 25.6628 30.3809 25.5398 30.4688 25.1798C30.5796 24.7342 30.6851 24.2921 30.8187 23.8287C30.9225 23.465 31.0333 23.1174 31.1388 22.7806C31.4447 21.8055 31.7331 20.884 31.6821 20.2387C31.5977 19.1817 31.0684 18.3012 29.6564 16.8699C27.3687 14.5508 25.7035 12.8361 24.2352 11.3228C23.0904 10.1428 22.1022 9.12497 21.0366 8.04478C20.8344 7.8398 20.6181 7.64729 20.3895 7.47082C20.0941 7.24267 19.7776 7.04303 19.4399 6.88439C19.0566 6.70257 18.6504 6.57245 18.2319 6.50828C17.7518 6.4352 17.2595 6.44946 16.7829 6.54215C16.1939 6.65623 15.6329 6.88795 15.1124 7.18384C14.4179 7.57955 13.8024 8.09113 13.2362 8.65617C12.9531 8.93959 12.677 9.22835 12.3957 9.51355C12.1002 9.813 11.8048 10.1125 11.5094 10.4119C11.0505 10.8771 10.5915 11.3424 10.1326 11.8076C9.5892 12.3584 9.04585 12.9074 8.50249 13.4582C8.00662 13.9608 7.56349 14.5116 7.1995 15.1195C6.92518 15.5776 6.69834 16.0695 6.55063 16.5847C6.4293 17.0089 6.36424 17.4509 6.36952 17.893C6.37303 18.278 6.4293 18.663 6.53481 19.0338C6.62976 19.3671 6.76516 19.6897 6.93046 19.9945C7.07641 20.2655 7.24873 20.5222 7.43688 20.7628C7.59162 20.9606 7.75692 21.1478 7.93276 21.3261C8.99661 22.4045 10.0024 23.408 11.1665 24.5684C12.6594 26.0568 14.351 27.743 16.6388 30.0638C18.0508 31.4951 18.9194 32.0316 19.9622 32.1172C19.9956 32.1208 20.0325 32.1208 20.0677 32.1208C20.0782 32.1208 20.0906 32.1208 20.1011 32.1208C21.8701 32.1208 23.305 33.5753 23.305 35.3684C23.305 37.1616 21.8771 38.609 20.1117 38.6161C19.8936 38.6161 19.6721 38.609 19.447 38.5894C16.1341 38.3185 13.8798 36.4486 12.1108 34.6555C9.84066 32.3543 8.1596 30.677 6.67548 29.1975C5.50261 28.0264 4.48799 27.0157 3.4048 25.9177C2.23896 24.7342 0.246655 22.1977 0.0198174 18.4901C-0.127891 16.0677 0.480529 12.3816 4.22599 8.58487L5.03487 7.76493L7.65668 5.10725L8.46556 4.28731C12.2145 0.488843 15.8492 -0.129678 18.2407 0.0200501C21.8982 0.24999 24.4005 2.26776 25.5681 3.45133C26.6513 4.54934 27.6483 5.57605 28.8036 6.76674C30.2631 8.27116 31.9178 9.97521 34.1879 12.2764C35.9569 14.0696 37.8015 16.3547 38.0688 19.7129C38.2217 21.6309 37.703 23.285 37.2458 24.7449C37.1473 25.0586 37.0541 25.3545 36.9715 25.6432C36.6128 26.8927 36.2664 28.153 35.9428 29.39C35.665 30.4506 35.6703 31.267 36.5354 32.3471L41.2234 37.0992C41.3711 37.249 41.6085 37.249 41.7562 37.0992L41.7808 37.0743C43.0574 35.7802 45.1271 35.7802 46.4037 37.0743C47.6803 38.3684 47.6803 40.4663 46.4037 41.7604L46.402 41.7586Z" fill="#2BB673"/>
<path d="M228 30.8713C228 32.9408 226.342 34.6324 224.311 34.6324C222.28 34.6324 220.601 32.9408 220.601 30.8713C220.601 28.8019 222.257 27.0996 224.353 27.0996C226.449 27.0996 228 28.8126 228 30.8713ZM221.436 30.8713C221.436 32.5077 222.73 33.8517 224.313 33.8517C225.895 33.8517 227.168 32.5184 227.168 30.8713C227.168 29.2243 225.885 27.8803 224.346 27.8803C222.721 27.8803 221.438 29.1922 221.438 30.8713H221.436ZM224.494 28.7466C224.942 28.7466 225.199 28.8001 225.445 28.9409C225.809 29.1477 226.001 29.4935 226.001 29.9159C226.001 30.3829 225.776 30.7074 225.338 30.9248C225.786 31.1191 225.915 31.39 225.936 32.2688C225.957 32.5504 225.988 32.7679 226.043 32.898H225.016C224.974 32.8 224.94 32.6485 224.919 32.3455C224.877 31.4667 224.749 31.2724 224.17 31.2403H223.827V32.898H222.748V28.7466H224.49H224.494ZM223.831 30.6111H224.269C224.728 30.6111 224.932 30.4275 224.932 30.0033C224.932 29.579 224.74 29.4079 224.311 29.4079H223.829V30.6111H223.831Z" fill="#2BB673"/>
<path d="M68.9514 13.4834C74.7173 13.4834 76.6991 15.9575 76.6991 19.977V21.337C76.6991 25.4813 74.6857 27.8609 68.9514 27.8609H64.5888V33.736C64.5888 33.9926 64.383 34.1994 64.1316 34.1994H59.1886C58.9354 34.1994 58.7314 33.9909 58.7314 33.736V13.9468C58.7314 13.6902 58.9372 13.4834 59.1886 13.4834H68.9497H68.9514ZM64.5888 22.9448H68.4943C70.0505 22.9448 70.782 22.5117 70.782 21.1195V20.223C70.782 18.8308 70.0505 18.4298 68.4943 18.4298H64.5888V22.9448Z" fill="#2BB673"/>
<path d="M85.4594 17.813C90.951 17.813 93.36 19.9163 93.36 23.6257V33.7377C93.36 33.9944 93.1543 34.2011 92.9028 34.2011H88.083C87.8298 34.2011 87.6258 33.9926 87.6258 33.7377V32.285H86.9541C85.9483 33.8304 84.4219 34.5113 82.1342 34.5113C79.2363 34.5113 77.04 33.0889 77.04 29.7503C77.04 26.4117 78.962 24.2763 83.9946 24.2763H87.624V23.6274C87.624 22.4831 86.984 21.8646 85.4278 21.8646H84.9706C83.606 21.8646 82.9466 22.3173 82.8042 23.1783C82.7672 23.4011 82.5773 23.5651 82.354 23.5651H77.7276C77.4638 23.5651 77.2511 23.3405 77.2704 23.0731C77.5095 19.7274 80.2263 17.813 84.9706 17.813H85.4594ZM82.5615 29.007C82.5615 29.7806 83.1717 30.3064 84.6664 30.3064C86.161 30.3064 87.6258 29.7806 87.6258 27.8947V27.5863H84.8809C83.1734 27.5863 82.5633 28.1122 82.5633 29.0088L82.5615 29.007Z" fill="#2BB673"/>
<path d="M100.62 17.8129C102.786 17.8129 104.158 18.6471 105.104 19.7915H105.744V11.7828C105.744 11.5261 105.949 11.3193 106.201 11.3193H110.989C111.242 11.3193 111.446 11.5279 111.446 11.7828V33.7376C111.446 33.9943 111.241 34.2011 110.989 34.2011H106.201C105.948 34.2011 105.744 33.9925 105.744 33.7376V32.4079H105.104C104.189 33.6752 102.816 34.5112 100.62 34.5112H100.131C96.5313 34.5112 94.2734 32.3776 94.2734 27.5221V24.8002C94.2734 19.9448 96.5313 17.8111 100.131 17.8111H100.62V17.8129ZM99.9796 24.7093V27.6166C99.9796 29.162 101.079 29.9356 102.633 29.9356H103.122C104.708 29.9356 105.745 29.162 105.745 27.6166V24.7093C105.745 23.1639 104.708 22.3903 103.122 22.3903H102.633C101.077 22.3903 99.9796 23.1639 99.9796 24.7093Z" fill="#2BB673"/>
<path d="M118.85 17.8129C121.016 17.8129 122.388 18.6471 123.334 19.7915H123.974V11.7828C123.974 11.5261 124.18 11.3193 124.431 11.3193H129.221C129.475 11.3193 129.679 11.5279 129.679 11.7828V33.7376C129.679 33.9943 129.473 34.2011 129.221 34.2011H124.431C124.178 34.2011 123.974 33.9925 123.974 33.7376V32.4079H123.334C122.42 33.6752 121.046 34.5112 118.85 34.5112H118.361C114.762 34.5112 112.504 32.3776 112.504 27.5221V24.8002C112.504 19.9448 114.762 17.8111 118.361 17.8111H118.85V17.8129ZM118.21 24.7093V27.6166C118.21 29.162 119.309 29.9356 120.863 29.9356H121.352C122.938 29.9356 123.976 29.162 123.976 27.6166V24.7093C123.976 23.1639 122.938 22.3903 121.352 22.3903H120.863C119.307 22.3903 118.21 23.1639 118.21 24.7093Z" fill="#2BB673"/>
<path d="M136.744 11.7828V33.7376C136.744 33.9943 136.539 34.2011 136.287 34.2011H131.497C131.244 34.2011 131.04 33.9925 131.04 33.7376V11.7828C131.04 11.5261 131.246 11.3193 131.497 11.3193H136.287C136.54 11.3193 136.744 11.5279 136.744 11.7828Z" fill="#2BB673"/>
<path d="M146.437 17.813C151.378 17.813 154.491 20.1623 154.491 24.8627V27.4919H143.112V28.0801C143.112 29.843 144.179 30.5542 145.948 30.5542H146.437C147.751 30.5542 148.732 30.2173 149.075 29.0159C149.133 28.8127 149.309 28.6665 149.518 28.6665H153.893C154.167 28.6665 154.385 28.9107 154.348 29.187C153.919 32.3919 151.361 34.5113 146.437 34.5113H145.948C141.037 34.5113 137.712 32.2226 137.712 27.5543V24.8645C137.712 20.1641 141.007 17.8148 145.948 17.8148H146.437V17.813ZM143.112 23.9358H149.121C149.059 22.5134 147.992 21.7719 146.376 21.7719H145.887C144.026 21.7719 143.11 22.5455 143.11 23.9358H143.112Z" fill="#2BB673"/>
<path d="M162.35 14.565V18.1211H169.488C169.741 18.1211 169.945 18.3296 169.945 18.5845V21.7698C169.945 22.0265 169.739 22.2332 169.488 22.2332H162.35V28.6341C162.35 29.561 162.746 30.1493 163.6 30.1493H164.089C164.912 30.1493 165.248 29.561 165.248 28.6341V28.0459C165.248 27.7892 165.454 27.5825 165.705 27.5825H169.762C170.015 27.5825 170.219 27.791 170.219 28.0459V28.6341C170.219 32.9638 167.566 34.5092 164.026 34.5092H163.537C159.725 34.5092 156.612 32.9638 156.612 28.6341V22.2332H154.873C154.62 22.2332 154.416 22.0247 154.416 21.7698V18.5845C154.416 18.3278 154.622 18.1211 154.873 18.1211H156.612V14.565C156.612 14.3083 156.818 14.1016 157.069 14.1016H161.889C162.143 14.1016 162.347 14.3101 162.347 14.565H162.35Z" fill="#2BB673"/>
<path d="M176.645 18.5846V19.9144H177.285C178.078 18.4919 179.451 17.811 181.282 17.811C184.21 17.811 185.736 19.2638 185.736 23.7485V24.7075C185.736 24.9641 185.53 25.1709 185.279 25.1709H180.948C180.695 25.1709 180.491 24.9623 180.491 24.7075V24.3367C180.491 23.2226 179.851 22.6362 178.569 22.6362C177.287 22.6362 176.647 23.2244 176.647 24.3367V33.7375C176.647 33.9942 176.441 34.201 176.19 34.201H171.4C171.146 34.201 170.942 33.9924 170.942 33.7375V18.5864C170.942 18.3297 171.148 18.123 171.4 18.123H176.19C176.443 18.123 176.647 18.3315 176.647 18.5864L176.645 18.5846Z" fill="#2BB673"/>
<path d="M194.224 17.813C199.716 17.813 202.125 19.9163 202.125 23.6257V33.7377C202.125 33.9944 201.919 34.2011 201.667 34.2011H196.848C196.594 34.2011 196.39 33.9926 196.39 33.7377V32.285H195.719C194.713 33.8304 193.187 34.5113 190.899 34.5113C188.001 34.5113 185.805 33.0889 185.805 29.7503C185.805 26.4117 187.727 24.2763 192.759 24.2763H196.389V23.6274C196.389 22.4831 195.749 21.8646 194.192 21.8646H193.735C192.371 21.8646 191.711 22.3173 191.569 23.1783C191.532 23.4011 191.342 23.5651 191.119 23.5651H186.492C186.228 23.5651 186.016 23.3405 186.035 23.0731C186.274 19.7274 188.991 17.813 193.735 17.813H194.224ZM191.326 29.007C191.326 29.7806 191.936 30.3064 193.431 30.3064C194.926 30.3064 196.39 29.7806 196.39 27.8947V27.5863H193.646C191.938 27.5863 191.328 28.1122 191.328 29.0088L191.326 29.007Z" fill="#2BB673"/>
<path d="M211.644 17.813C216.343 17.813 219.545 19.9466 219.545 24.2442V24.3369C219.545 24.5935 219.339 24.8003 219.088 24.8003H214.512C214.259 24.8003 214.055 24.5918 214.055 24.3369V24.2442C214.055 23.0998 213.171 22.3886 211.644 22.3886H211.156C209.478 22.3886 208.655 23.2549 208.655 24.6452V27.7681C208.655 29.0676 209.478 29.9321 211.156 29.9321H211.644C213.169 29.9321 214.085 29.2209 214.085 28.0462C214.085 27.7895 214.291 27.5828 214.542 27.5828H219.148C219.401 27.5828 219.605 27.7913 219.605 28.0462C219.605 32.2208 216.401 34.5095 211.643 34.5095H211.154C206.334 34.5095 202.947 32.0978 202.947 27.5525V24.8627C202.947 20.2247 206.334 17.813 211.154 17.813H211.643H211.644Z" fill="#2BB673"/>
</svg>
