<svg width="24" height="24" viewBox="0 0 24 24" fill="none" xmlns="http://www.w3.org/2000/svg">
<path d="M4.29108 2.14223C6.19019 0.243125 8.03317 -0.0662132 9.24442 0.0094899L9.2405 0.0107949C11.0939 0.125655 12.3626 1.13459 12.9539 1.72586C13.5021 2.27536 14.0085 2.78832 14.5932 3.3835C15.3333 4.13662 16.1726 4.98893 17.3225 6.13883C18.2192 7.03552 19.1537 8.1789 19.2894 9.85742C19.3664 10.8168 19.1041 11.6443 18.8718 12.3739L18.8628 12.4023L18.8627 12.4025C18.8165 12.5485 18.7726 12.6869 18.7334 12.8229C18.552 13.4481 18.3771 14.0772 18.2126 14.6959C18.0717 15.2258 18.0743 15.6344 18.5128 16.1747L20.8883 18.5502C20.9627 18.6246 21.0841 18.6246 21.1585 18.5502L21.1716 18.5372C21.819 17.8898 22.8671 17.8898 23.5145 18.5372C24.1618 19.1846 24.1618 20.2327 23.5145 20.8801L21.0254 23.3717H21.0241L20.8805 23.5153C20.2331 24.1627 19.185 24.1627 18.5376 23.5153C17.8902 22.8679 17.8902 21.8198 18.5376 21.1724L18.5481 21.162C18.6225 21.0876 18.6225 20.9662 18.5481 20.8918L16.3794 18.7232C15.9065 18.2502 15.2232 18.0543 14.5715 18.2047L11.6143 18.8872C10.4494 19.1561 9.20249 19.3415 8.12575 18.8221C7.32693 18.4368 6.68633 17.8743 6.13798 17.3259C5.046 16.234 4.22296 15.4238 3.49952 14.7117L3.38265 14.5967C2.78746 14.012 2.27451 13.5068 1.72501 12.9573C1.13374 12.3661 0.124801 11.0974 0.00994067 9.24397C-0.0644572 8.03141 0.243576 6.18974 2.14268 4.29063L4.29108 2.14223Z" fill="#B6B6B6"/>
</svg>
