<svg width="278" height="138" viewBox="0 0 278 138" fill="none" xmlns="http://www.w3.org/2000/svg">
<path d="M170.364 66.9752L169.887 67.4498L162.348 74.9628L162.342 74.9686L161.88 75.4288C159.797 77.5044 156.42 77.5044 154.337 75.4288C152.254 73.3533 152.254 69.9884 154.337 67.9129L154.369 67.8815C154.61 67.6413 154.61 67.2554 154.369 67.0152L115.861 28.6436C113.778 26.5681 113.778 23.2061 115.861 21.1305C117.944 19.055 121.318 19.055 123.401 21.1305L143.079 40.7394C143.501 41.1597 144.224 40.9624 144.367 40.3849C144.548 39.6702 144.72 38.9612 144.938 38.2179C145.108 37.6347 145.288 37.0773 145.461 36.5369C145.96 34.9731 146.43 33.4951 146.347 32.4602C146.209 30.7649 145.346 29.3526 143.042 27.0569C139.309 23.3376 136.592 20.5874 134.197 18.1602C132.329 16.2676 130.717 14.6352 128.978 12.9027C128.648 12.574 128.295 12.2652 127.922 11.9822C127.44 11.6163 126.924 11.2961 126.373 11.0416C125.748 10.75 125.085 10.5413 124.402 10.4384C123.619 10.3212 122.815 10.3441 122.038 10.4927C121.077 10.6757 120.162 11.0473 119.312 11.5219C118.179 12.1566 117.175 12.9771 116.251 13.8833C115.789 14.3379 115.339 14.801 114.88 15.2584C114.398 15.7387 113.916 16.219 113.434 16.6993C112.685 17.4455 111.936 18.1916 111.187 18.9378C110.301 19.8212 109.414 20.7017 108.528 21.5851C107.719 22.3913 106.996 23.2747 106.402 24.2495C105.954 24.9843 105.584 25.7733 105.343 26.5995C105.145 27.2799 105.039 27.9889 105.048 28.6979C105.053 29.3154 105.145 29.933 105.317 30.5276C105.472 31.0622 105.693 31.5797 105.963 32.0685C106.201 32.5031 106.482 32.9148 106.789 33.3007C107.041 33.618 107.311 33.9182 107.598 34.2041C109.334 35.9337 110.975 37.5432 112.874 39.4044C115.31 41.7915 118.07 44.496 121.803 48.2182C124.106 50.5139 125.524 51.3744 127.225 51.5116C127.28 51.5173 127.34 51.5173 127.397 51.5173C127.414 51.5173 127.435 51.5173 127.452 51.5173C130.338 51.5173 132.679 53.8502 132.679 56.7262C132.679 59.6022 130.349 61.9236 127.469 61.935C127.113 61.935 126.752 61.9236 126.384 61.8921C120.979 61.4576 117.301 58.4587 114.415 55.5826C110.711 51.8919 107.968 49.2017 105.547 46.8288C103.633 44.9505 101.978 43.3296 100.21 41.5685C98.3082 39.6702 95.0576 35.6021 94.6875 29.6557C94.4465 25.7705 95.4392 19.8583 101.55 13.769L102.87 12.4539L107.148 8.19134L108.467 6.87627C114.584 0.784037 120.514 -0.207987 124.416 0.0321576C130.384 0.40095 134.466 3.63718 136.372 5.53546C138.139 7.29652 139.766 8.94322 141.651 10.8529C144.032 13.2658 146.732 15.9989 150.435 19.6897C153.322 22.5657 156.331 26.2307 156.767 31.6168C157.017 34.693 156.171 37.346 155.425 39.6874C155.264 40.1905 155.112 40.6651 154.977 41.1283C154.392 43.1323 153.827 45.1535 153.299 47.1376C152.845 48.8386 152.854 50.148 154.266 51.8804L161.914 59.5021C162.155 59.7423 162.543 59.7423 162.784 59.5021L162.824 59.4621C164.907 57.3866 168.284 57.3866 170.367 59.4621C172.449 61.5376 172.449 64.9025 170.367 66.9781L170.364 66.9752Z" fill="white"/>
<path d="M0 103.156C0 101.964 0.889045 101 1.98828 101H17.7695C22.3369 101 24.2286 101.588 25.9414 103.458C27.6541 105.382 28.5829 108.693 28.5829 112.863C28.5829 117.565 27.478 121.039 25.4074 122.856C23.7656 124.297 22.3028 124.673 17.8434 124.673H9.10064V134.487C9.10064 135.679 8.21159 136.643 7.11236 136.643H1.99111C0.891879 136.643 0.0028345 135.679 0.0028345 134.487V103.156H0ZM14.807 116.068C16.6618 116.068 17.3406 115.961 17.8036 115.536C18.4455 114.947 18.8375 113.826 18.8375 112.382C18.8375 109.765 17.9087 108.964 14.8411 108.964H9.09495V116.072H14.8042L14.807 116.068Z" fill="white"/>
<path d="M32.9002 117.673C31.4771 117.759 30.4404 116.241 30.9204 114.784C31.5567 112.865 32.5025 111.652 34.0818 110.617C35.9735 109.336 38.7571 108.693 42.5377 108.693C48.3179 108.693 52.1723 109.869 53.885 112.219C55.1689 113.928 55.5609 115.905 55.5609 120.287V130.706C55.5921 132.436 55.6177 133.493 55.6915 134.269C55.8108 135.537 54.8906 136.637 53.7146 136.637H49.5818C48.5451 136.637 47.6845 135.775 47.5992 134.654L47.568 134.232C44.8554 136.477 42.5377 137.33 38.8963 137.33C32.5082 137.33 28.7617 133.911 28.7617 128.085C28.7617 125.039 29.8666 122.849 31.9373 121.673C34.4709 120.284 38.6463 119.376 43.4977 119.216C46.7443 119.108 47.2811 118.895 47.2811 117.934C47.2811 116.546 45.5314 115.529 43.0716 115.529C41.322 115.529 40.2426 115.874 39.5893 116.647C39.2371 117.063 38.7514 117.319 38.2288 117.349L32.8973 117.667L32.9002 117.673ZM47.355 124.512C46.2841 124.78 46.1421 124.78 44.0715 124.885C41.7168 124.937 40.859 125.045 40.183 125.153C39.1121 125.421 38.5071 126.222 38.5071 127.343C38.5071 128.839 39.578 129.588 41.7906 129.588C46.037 129.588 47.3578 128.519 47.3578 125.205V124.509L47.355 124.512Z" fill="white"/>
<path d="M82.045 136.64H78.0144C76.8556 136.64 75.941 135.568 76.0318 134.315L76.0773 133.702C73.4016 136.428 71.544 137.336 68.4423 137.336C61.5912 137.336 57.3448 131.885 57.3448 123.016C57.3448 114.147 61.6992 109.176 68.5502 109.176C71.2259 109.176 73.2965 109.925 75.8643 111.742V103.156C75.8643 101.964 76.7533 101 77.8525 101H82.0478C83.147 101 84.0361 101.964 84.0361 103.156V134.484C84.0361 135.676 83.147 136.64 82.0478 136.64H82.045ZM66.4427 123.336C66.4427 126.862 68.1554 128.839 71.1889 128.839C74.2225 128.839 75.8983 126.862 75.8983 123.444C75.8983 120.026 74.1856 117.888 71.1889 117.888C68.1923 117.888 66.4427 119.866 66.4427 123.339V123.336Z" fill="white"/>
<path d="M110.764 136.64H106.734C105.575 136.64 104.66 135.568 104.751 134.315L104.797 133.702C102.121 136.428 100.263 137.336 97.1615 137.336C90.3105 137.336 86.0641 131.885 86.0641 123.016C86.0641 114.147 90.4184 109.176 97.2695 109.176C99.9451 109.176 102.016 109.925 104.583 111.742V103.156C104.583 101.964 105.473 101 106.572 101H110.767C111.866 101 112.755 101.964 112.755 103.156V134.484C112.755 135.676 111.866 136.64 110.767 136.64H110.764ZM95.1619 123.336C95.1619 126.862 96.8747 128.839 99.9082 128.839C102.942 128.839 104.618 126.862 104.618 123.444C104.618 120.026 102.905 117.888 99.9082 117.888C96.9116 117.888 95.1619 119.866 95.1619 123.339V123.336Z" fill="white"/>
<path d="M117.845 101H122.39C123.58 101 124.543 101.964 124.543 103.156V134.484C124.543 135.676 123.577 136.64 122.39 136.64H117.845C116.655 136.64 115.692 135.676 115.692 134.484V103.156C115.692 101.964 116.658 101 117.845 101Z" fill="white"/>
<path d="M151.001 128.84C152.427 128.84 153.384 130.419 152.831 131.845C152.277 133.271 151.515 134.284 150.385 135.199C148.138 136.963 145.355 137.764 141.25 137.764C136.399 137.764 132.828 136.696 130.511 134.611C128.156 132.473 126.727 128.039 126.727 123.016C126.727 118.581 127.869 114.735 129.761 112.702C132.152 110.19 135.97 108.748 140.287 108.748C146.139 108.748 150.527 111.366 152.277 115.856C153.075 117.922 153.45 120.109 153.586 124.316C153.626 125.532 152.723 126.542 151.598 126.542H135.757C136.115 128.251 136.47 129 137.22 129.64C138.112 130.336 139.29 130.709 140.858 130.709C142.324 130.709 143.119 130.432 143.818 129.569C144.196 129.104 144.738 128.836 145.309 128.836H151.001V128.84ZM144.818 119.755C144.284 117.242 142.818 116.013 140.358 116.013C137.899 116.013 136.433 117.189 135.828 119.755H144.821H144.818Z" fill="white"/>
<path d="M161.23 110.085H154.154C153.055 110.085 152.166 109.121 152.166 107.929V103.156C152.166 101.964 153.055 101 154.154 101H177.511C178.61 101 179.499 101.964 179.499 103.156V107.929C179.499 109.121 178.61 110.085 177.511 110.085H170.328V134.484C170.328 135.676 169.439 136.64 168.339 136.64H163.218C162.119 136.64 161.23 135.676 161.23 134.484V110.085Z" fill="white"/>
<path d="M182.07 109.869H186.592C187.776 109.869 188.736 110.833 188.736 112.025V112.434C191.045 110.137 193.159 109.176 195.931 109.176C199.74 109.176 201.97 110.993 202.816 114.732C203.123 116.056 203.259 117.485 203.322 120.115C203.35 121.325 202.381 122.32 201.18 122.32H196.454C195.42 122.32 194.519 121.581 194.346 120.555C194.031 118.698 193.269 117.938 191.818 117.938C189.665 117.938 188.739 119.807 188.739 124.137V134.484C188.739 135.676 187.779 136.64 186.595 136.64H182.073C180.888 136.64 179.928 135.676 179.928 134.484V112.025C179.928 110.833 180.888 109.869 182.073 109.869H182.07Z" fill="white"/>
<path d="M207.468 117.673C206.045 117.759 205.009 116.241 205.489 114.784C206.125 112.865 207.071 111.652 208.65 110.617C210.542 109.336 213.325 108.693 217.106 108.693C222.886 108.693 226.741 109.869 228.453 112.219C229.737 113.928 230.129 115.905 230.129 120.287V130.706C230.16 132.436 230.186 133.493 230.26 134.269C230.379 135.537 229.459 136.637 228.283 136.637H224.15C223.113 136.637 222.253 135.775 222.167 134.654L222.136 134.232C219.424 136.477 217.106 137.33 213.465 137.33C207.076 137.33 203.33 133.911 203.33 128.085C203.33 125.039 204.435 122.849 206.506 121.673C209.039 120.284 213.215 119.376 218.066 119.216C221.313 119.108 221.849 118.895 221.849 117.934C221.849 116.546 220.1 115.529 217.64 115.529C215.89 115.529 214.811 115.874 214.158 116.647C213.805 117.063 213.32 117.319 212.797 117.349L207.466 117.667L207.468 117.673ZM221.923 124.512C220.852 124.78 220.71 124.78 218.64 124.885C216.285 124.937 215.427 125.045 214.751 125.153C213.68 125.421 213.075 126.222 213.075 127.343C213.075 128.839 214.146 129.588 216.359 129.588C220.605 129.588 221.926 128.519 221.926 125.205V124.509L221.923 124.512Z" fill="white"/>
<path d="M257.516 124.99C258.746 124.99 259.681 126.191 259.476 127.509C259.067 130.17 258.391 131.919 257.198 133.539C255.165 136.317 251.526 137.761 246.601 137.761C242.354 137.761 238.821 136.852 236.432 135.143C233.649 133.166 232.007 128.784 232.007 123.336C232.007 117.192 233.828 112.758 237.182 110.833C239.503 109.496 242.749 108.696 245.996 108.696C248.35 108.696 250.921 109.176 252.884 109.925C255.951 111.153 257.914 113.291 259.022 116.712C259.141 117.066 259.238 117.402 259.326 117.756C259.658 119.12 258.701 120.454 257.4 120.454H251.736C250.984 120.454 250.293 119.995 249.961 119.262C249.151 117.476 247.808 116.555 245.999 116.555C242.894 116.555 241.11 119.012 241.11 123.287C241.11 127.561 242.965 130.127 246.036 130.127C248.26 130.127 249.597 129.027 250.305 126.542C250.563 125.63 251.33 124.996 252.211 124.996H257.522L257.516 124.99Z" fill="white"/>
<path d="M262.803 130.37H269.137V132.141H266.886V137.693H265.054V132.141H262.803V130.37Z" fill="white"/>
<path d="M269.657 130.37H272.615L273.759 133.714H274.047L275.219 130.37H278V137.693H276.186V132.643H275.935L274.773 136.01H272.782L271.619 132.643H271.378V137.693H269.657V130.37Z" fill="white"/>
</svg>
